# xmcd
#
# Track frame offsets:
#	182
#	20212
#	40730
#	58080
#	76132
#	101372
#	119030
#	136077
#	152495
#	170362
#	190050
#	207372
#	221280
#	239975
#	255567
#	272817
#	290745
#	306685
#	323042
#	341822
#
# Disc length: 4789
#
# Revision: 2
# Processed by: cddbd v1.5.1PL0 Copyright (c) Steve Scherf et al.
# Submitted via: audiograbber 1.81.01
# Normalized: r1:DSETVAR1
#
DISCID=3212b314
DTITLE=Various Artist - Soul Stars
DYEAR=1993
DGENRE=Rhythmic Soul
TTITLE0=Marvin Gaye - Sactified Lady
TTITLE1=Marvin Gaye - My Love Is Waiting
TTITLE2=Heatwave - Always And Forever
TTITLE3=Heatwave - Jitterbugging
TTITLE4=Isley Brothers - That Lady
TTITLE5=Isley Brothers - Harvest For The World
TTITLE6=Gibson Brothers - Cuba
TTITLE7=Gibson Brothers - Ooh What A Life
TTITLE8=Patti Labelle - If You Asked Me To
TTITLE9=Patti Labelle - Oh, People
TTITLE10=KC and The Sunshine Band - Please Don't Go
TTITLE11=KC and The Sunshine Band - That's The Way I Like It
TTITLE12=Robbie Nevil - Dominoes
TTITLE13=Robbie Nevil - C'est La Vie
TTITLE14=Pointer Sisters - Slowhand
TTITLE15=Pointer Sisters - Jump (For My Love)
TTITLE16=Tavares - Heaven Must Be Missing An Angel
TTITLE17=Tavares - Don't Take Away The Music
TTITLE18=Bill Withers - Ain't No Sunshine
TTITLE19=Bill Withers - Lean On me
EXTD=
EXTT0=
EXTT1=
EXTT2=
EXTT3=
EXTT4=
EXTT5=
EXTT6=
EXTT7=
EXTT8=
EXTT9=
EXTT10=
EXTT11=
EXTT12=
EXTT13=
EXTT14=
EXTT15=
EXTT16=
EXTT17=
EXTT18=
EXTT19=
PLAYORDER=
